<?xml version="1.0" standalone="no"?>
<!DOCTYPE svg PUBLIC "-//W3C//DTD SVG 20010904//EN"
        "http://www.w3.org/TR/2001/REC-SVG-20010904/DTD/svg10.dtd">
<svg version="1.0" xmlns="http://www.w3.org/2000/svg"
     width="2400.000000pt" height="2400.000000pt" viewBox="0 0 2400.000000 2400.000000"
     preserveAspectRatio="xMidYMid meet">
    <metadata>
        Created by potrace 1.14, written by Peter Selinger 2001-2017
    </metadata>
    <g transform="translate(0.000000,2400.000000) scale(0.100000,-0.100000)"
       fill="#000000" stroke="none">
        <path d="M12165 21419 c-2480 -83 -4446 -444 -5620 -1031 -167 -84 -258 -137
-420 -244 -180 -119 -284 -202 -420 -339 -210 -209 -327 -394 -445 -700 -436
-1134 -696 -2197 -785 -3207 -20 -238 -38 -713 -30 -818 l6 -85 -153 -59
c-519 -198 -970 -425 -1353 -681 -529 -353 -862 -721 -979 -1079 -14 -42 -40
-102 -59 -134 -50 -87 -94 -191 -118 -284 -30 -109 -33 -310 -6 -408 24 -92
88 -216 152 -298 317 -406 1125 -633 2290 -645 214 -2 233 -1 271 18 l41 21 6
-281 c7 -299 23 -479 62 -713 60 -352 176 -726 330 -1060 26 -57 45 -105 43
-107 -1 -1 -37 -10 -78 -19 -734 -164 -1283 -596 -1371 -1079 -14 -80 -13
-221 2 -283 14 -58 60 -163 88 -203 l21 -29 -98 -37 c-137 -53 -312 -143 -417
-213 -111 -75 -300 -239 -379 -329 -275 -313 -327 -684 -147 -1041 85 -168
266 -382 459 -543 48 -40 93 -78 101 -85 11 -10 -7 -37 -100 -151 -246 -298
-463 -599 -650 -898 -265 -423 -399 -692 -580 -1160 -369 -959 -590 -1548
-785 -2092 -115 -323 -357 -1039 -369 -1091 l-7 -32 464 0 463 0 38 173 c214
966 490 1878 816 2697 54 135 117 299 141 364 130 358 552 1081 911 1561 140
188 317 390 369 423 25 16 101 88 170 161 69 74 163 162 209 196 173 131 486
256 795 320 160 33 505 81 684 95 l143 11 72 -68 c40 -37 144 -131 231 -208
703 -619 1343 -1024 1846 -1168 119 -35 277 -60 328 -53 205 28 282 279 126
415 -46 41 -63 47 -178 66 -374 60 -905 359 -1526 859 -272 219 -473 401 -800
722 -224 220 -238 232 -288 244 -198 47 -367 -156 -276 -332 9 -16 14 -32 11
-34 -2 -2 -55 -11 -118 -19 -592 -78 -1025 -219 -1329 -433 -36 -26 -107 -86
-157 -135 l-93 -90 -37 29 c-21 16 -94 85 -163 154 -269 269 -414 526 -397
705 12 129 78 227 210 316 230 154 583 295 897 359 127 26 131 26 220 -11 41
-17 149 -55 239 -86 139 -47 171 -55 212 -50 171 20 266 196 189 347 -35 69
-82 97 -270 164 -308 111 -364 137 -413 198 -46 58 -74 115 -92 190 -67 287
124 541 503 668 78 26 268 68 379 84 l41 6 95 -143 c327 -492 714 -828 1477
-1283 270 -160 414 -254 558 -360 61 -46 117 -84 123 -84 6 0 50 -31 98 -68
186 -148 447 -326 712 -485 1039 -624 2180 -983 3319 -1047 443 -24 1412 -1
2140 51 1087 78 1986 239 2602 465 95 35 155 67 296 156 480 305 888 597 1061
762 l63 61 43 -47 c76 -85 79 -162 10 -303 -46 -93 -158 -241 -198 -262 -18
-8 -96 -78 -174 -154 -315 -307 -617 -526 -960 -697 -298 -149 -538 -226 -853
-272 -160 -23 -201 -40 -253 -101 -84 -98 -69 -244 34 -332 58 -50 115 -62
235 -48 554 65 1154 319 1658 700 37 28 89 62 115 76 26 13 129 96 229 184
100 89 188 161 196 161 37 0 219 -166 323 -295 225 -278 462 -739 626 -1213
103 -297 175 -569 256 -962 94 -460 163 -682 511 -1660 289 -810 425 -1157
604 -1542 l45 -98 220 0 c122 0 221 1 221 3 0 7 -208 589 -425 1192 -548 1520
-768 2184 -930 2805 -94 360 -143 510 -246 753 -200 468 -465 874 -843 1292
-65 72 -69 78 -56 98 142 221 197 391 188 581 -8 144 -60 274 -157 387 l-33
40 194 197 c205 209 313 329 474 532 590 742 1041 1654 1240 2509 30 131 41
162 86 237 139 237 240 532 290 849 21 132 22 172 23 730 0 657 1 646 -70 791
-36 74 -131 187 -199 236 l-38 28 25 9 c349 133 738 351 1072 601 566 423 908
880 975 1302 16 97 8 300 -15 383 -35 130 -133 301 -231 405 -18 19 -54 77
-79 128 -234 468 -877 771 -1965 927 -151 21 -542 65 -584 65 -9 0 -19 25 -31
78 -255 1186 -805 2251 -1677 3247 -240 275 -710 727 -795 766 -24 12 -124 31
-245 49 -701 101 -1530 168 -2458 200 -335 11 -1649 11 -1995 -1z m2210 -478
c902 -44 1531 -98 2130 -182 l150 -21 55 -46 c101 -85 505 -495 631 -642 417
-483 741 -964 1004 -1490 76 -152 198 -421 193 -426 -2 -1 -139 8 -306 21
-1045 82 -1884 110 -3027 102 -769 -6 -948 -11 -1550 -42 -2923 -155 -5778
-717 -7875 -1552 -146 -58 -282 -114 -303 -125 -22 -11 -41 -17 -43 -15 -13
13 91 533 172 862 163 656 483 1597 620 1824 189 311 515 573 1017 816 893
432 2231 723 3952 860 371 29 696 46 1340 69 191 7 1641 -4 1840 -13z m2245
-3171 c833 -30 2084 -115 2101 -142 9 -15 106 -371 120 -445 7 -34 11 -64 8
-66 -2 -1 -89 0 -194 4 -3401 129 -5900 -1 -8020 -415 -126 -25 -333 -64 -460
-86 -1474 -260 -2845 -630 -3918 -1056 -173 -69 -330 -122 -579 -194 -188 -55
-346 -100 -351 -100 -14 0 8 499 28 656 l6 42 182 80 c1596 707 3874 1266
6262 1536 1003 113 1923 174 3045 200 258 6 1487 -4 1770 -14z m1300 -1099
c1001 -33 1254 -45 1610 -82 1285 -130 2010 -456 2010 -902 0 -111 -53 -271
-130 -396 l-21 -34 -65 71 c-82 90 -158 147 -282 210 -301 155 -710 240 -1372
284 -222 14 -1713 14 -2620 -2 -3131 -53 -5090 -220 -7275 -620 -1000 -183
-1965 -413 -2855 -682 -146 -44 -449 -131 -675 -194 -1255 -351 -1631 -462
-2080 -615 -846 -286 -1416 -565 -1701 -831 l-63 -59 -6 44 c-25 164 121 423
368 653 422 393 1079 757 1882 1044 206 73 380 127 975 299 267 77 836 244
1265 371 881 261 1511 444 1915 554 2143 585 3836 825 6305 896 375 11 2405 4
2815 -9z m1855 -1332 c605 -42 1046 -161 1188 -319 29 -31 37 -48 37 -78 0
-62 -53 -153 -143 -249 -154 -162 -362 -305 -652 -448 -175 -86 -432 -192
-441 -182 -6 6 -364 1273 -364 1288 0 11 79 9 375 -12z m-2525 -468 c751 -35
1497 -83 1510 -98 9 -10 200 -479 280 -688 85 -220 132 -351 200 -552 l59
-173 -1502 0 c-913 0 -1531 -4 -1577 -10 -106 -14 -189 -44 -272 -100 -181
-119 -278 -283 -303 -512 l-6 -58 -519 0 -518 0 -7 67 c-19 176 -73 292 -194
414 -66 66 -103 94 -161 122 -161 78 17 72 -1995 75 -1190 2 -1830 0 -1890 -7
-160 -19 -281 -75 -392 -183 l-51 -50 -954 110 c-524 61 -1314 153 -1755 204
-442 51 -803 96 -803 99 0 13 665 208 1125 329 2214 584 4724 933 7340 1020
337 11 2092 4 2385 -9z m-12500 -1481 c0 -6 -81 -265 -180 -576 -99 -311 -180
-568 -180 -571 0 -8 -444 4 -625 17 -310 22 -582 60 -755 106 -117 30 -223 70
-252 94 l-23 19 35 36 c159 166 585 390 1150 605 171 66 796 279 818 280 6 0
12 -5 12 -10z m2855 -764 l2150 -353 6 -319 c8 -363 23 -507 76 -718 47 -187
93 -312 180 -488 356 -719 1054 -1219 1848 -1323 173 -23 458 -23 630 0 511
67 991 299 1363 659 219 212 410 482 526 742 140 316 201 603 213 997 l6 217
517 0 517 0 6 -209 c14 -439 80 -725 247 -1066 313 -643 885 -1110 1574 -1285
207 -52 370 -72 596 -72 221 0 387 19 584 69 194 49 315 94 504 188 89 45 162
80 162 77 0 -3 -40 -82 -88 -176 -511 -987 -1302 -1866 -2222 -2471 -942 -618
-2007 -968 -3185 -1045 -196 -13 -770 -13 -1005 0 -961 53 -1858 222 -2750
520 -1347 449 -2513 1151 -3375 2031 -205 210 -328 352 -488 564 -499 662
-780 1326 -847 2004 -22 222 -9 974 25 1511 21 314 20 311 53 304 15 -3 995
-164 2177 -358z m6355 -433 c0 -418 -3 -549 -15 -627 -113 -752 -680 -1348
-1423 -1497 -136 -27 -418 -37 -559 -19 -443 55 -884 295 -1149 624 -187 232
-297 450 -363 716 -17 69 -35 163 -41 210 -6 47 -10 312 -10 602 l0 518 1780
0 1780 0 0 -527z m5880 0 c0 -418 -3 -549 -15 -627 -79 -524 -382 -986 -831
-1264 -162 -100 -313 -164 -504 -211 -161 -39 -260 -51 -440 -51 -533 0 -1026
234 -1368 648 -208 252 -353 589 -392 912 -6 47 -10 312 -10 602 l0 518 1780
0 1780 0 0 -527z"/>
        <path d="M14891 10835 c-46 -14 -134 -46 -195 -71 -311 -128 -397 -211 -404
-394 -5 -110 17 -169 102 -281 237 -314 581 -609 794 -680 160 -53 300 14 427
206 187 281 326 816 248 960 -87 164 -360 269 -728 280 -151 5 -165 4 -244
-20z"/>
        <path d="M13094 9150 c-504 -29 -849 -176 -1056 -450 -176 -232 -239 -589
-157 -890 104 -386 476 -710 954 -833 135 -35 205 -44 525 -67 640 -46 1071
-60 2010 -63 647 -2 727 0 843 16 667 95 1191 429 1412 901 75 158 90 227 90
406 0 179 -16 254 -86 393 -99 199 -231 334 -413 422 -136 66 -240 89 -411 88
-188 0 -252 -12 -649 -122 -254 -70 -297 -75 -601 -75 -349 0 -351 0 -1257
169 -489 91 -870 124 -1204 105z m516 -481 c175 -16 412 -53 765 -119 710
-134 884 -155 1250 -147 284 5 399 21 639 88 388 108 491 127 618 109 177 -25
306 -145 354 -331 45 -174 -44 -393 -227 -563 -211 -195 -504 -324 -849 -372
-101 -14 -220 -15 -1000 -11 -958 6 -1184 14 -1830 62 -241 19 -349 35 -456
71 -274 92 -470 266 -534 473 -25 78 -27 231 -5 314 47 181 171 299 384 368
79 25 216 53 311 62 83 9 475 6 580 -4z"/>
        <path d="M14140 4771 c-70 -21 -139 -82 -161 -139 -31 -82 -73 -364 -90 -607
-13 -194 -7 -802 11 -1010 55 -651 157 -1234 310 -1769 56 -198 65 -219 107
-257 49 -47 93 -63 163 -63 96 0 168 44 213 129 32 61 28 136 -17 285 -101
334 -201 842 -256 1290 -48 401 -54 509 -55 965 0 472 7 577 52 810 15 81 22
144 19 168 -23 139 -168 237 -296 198z"/>
        <path d="M11360 4631 c-86 -26 -153 -95 -171 -176 -10 -45 -8 -70 15 -196 77
-428 116 -820 116 -1185 0 -321 -29 -532 -97 -694 -26 -62 -36 -100 -36 -141
-1 -224 283 -321 419 -142 67 88 139 315 169 537 22 160 30 535 16 756 -28
444 -112 1024 -161 1121 -49 94 -172 149 -270 120z"/>
        <path d="M8400 3591 c-70 -21 -139 -82 -161 -139 -14 -38 -174 -744 -268
-1184 -130 -609 -175 -862 -191 -1071 -12 -154 -44 -354 -96 -592 -36 -166
-112 -475 -138 -558 l-14 -47 249 0 248 0 16 53 c8 28 35 138 59 242 84 361
131 614 147 800 6 66 17 172 25 235 27 211 181 948 359 1725 71 311 74 339 36
414 -50 96 -173 152 -271 122z"/>
        <path d="M17880 3111 c-86 -26 -153 -95 -170 -175 -10 -44 6 -254 109 -1441
66 -765 123 -1414 126 -1442 l6 -53 241 0 240 0 -6 53 c-3 28 -60 677 -126
1442 -66 765 -122 1406 -126 1425 -23 135 -168 229 -294 191z"/>
    </g>
</svg>
